<svg width="133" height="57" viewBox="0 0 133 57" fill="none" xmlns="http://www.w3.org/2000/svg">
<path fill-rule="evenodd" clip-rule="evenodd" d="M31.6013 51.7697L33.6815 54.0637C32.3049 55.4102 30.3473 56.2055 28.0225 56.2055C23.1278 56.2055 19.6709 52.718 19.6709 47.8843C19.6709 43.0202 23.1278 39.5332 28.0225 39.5332C30.378 39.5332 32.3355 40.3587 33.7121 41.7358L31.6318 44.03C30.8675 42.47 29.6131 41.4912 28.0225 41.4912C25.3304 41.4912 23.5863 44.2746 23.5863 47.8843C23.5863 51.4636 25.3304 54.248 28.0225 54.248C29.5821 54.248 30.8365 53.2992 31.6013 51.7697ZM131.676 49.7559H130.135V56.2055H125.37V49.7559H116.59V46.387C124.689 39.3997 124.079 31.1221 124.079 31.1221H129.347C129.347 31.1221 129.347 40.2238 120.317 46.387H125.37V43.915L130.135 42.016V46.387H132.787L131.676 49.7559ZM116.948 34.4904C111.86 43.1982 111.932 52.4796 112.003 56.2055H106.736C106.7 50.2936 107.417 43.4132 113.437 34.4904H105.052V31.1221H116.948V34.4904ZM99.9755 51.7697L102.056 54.0637C100.679 55.4102 98.7215 56.2055 96.3967 56.2055C91.502 56.2055 88.045 52.718 88.045 47.8843C88.045 43.0202 91.502 39.5332 96.3967 39.5332C98.7516 39.5332 100.71 40.3587 102.086 41.7358L100.006 44.03C99.2417 42.47 97.9873 41.4912 96.3967 41.4912C93.7045 41.4912 91.9605 44.2746 91.9605 47.8843C91.9605 51.4636 93.7045 54.248 96.3967 54.248C97.9563 54.248 99.2103 53.2992 99.9755 51.7697ZM78.2554 39.9305V48.9247L81.8962 39.9305H85.2915V55.8996H81.4978V46.9055L77.8574 55.8996H74.4621V39.9305H78.2554ZM68.4654 50.7601C68.4654 48.5575 67.1498 47.7922 64.9784 47.6092V54.0335C67.1197 53.8806 68.4654 52.9936 68.4654 50.7601ZM64.9784 41.6436V45.7736C66.6913 45.8042 67.4861 45.2228 67.4861 43.785C67.4861 42.2555 66.4462 41.7048 64.9784 41.6436ZM64.9784 55.8998H61.1847V39.9307H64.9172C67.6094 39.9307 70.2705 41.0322 70.2705 43.785C70.2705 45.1311 69.4445 46.0181 68.2513 46.5689C70.3006 47.2114 71.8612 48.4963 71.8612 50.7601C71.8612 54.217 68.6802 55.8998 64.9784 55.8998ZM51.5474 42.2249V49.5362C53.2609 49.2611 54.6065 48.4658 54.8511 46.1409C55.0966 43.6933 53.8418 42.5617 51.5474 42.2249ZM58.553 45.7429C58.3084 49.9346 55.2189 51.2802 51.5474 51.647V55.8997H47.7543V39.9307H50.9967C53.077 39.9307 58.92 39.6861 58.553 45.7429ZM40.2589 42.5003V46.6302H44.0522V49.2002H40.2589V53.3296H44.8479V55.8996H36.4657V39.9304H44.8479V42.5003H40.2589Z" fill="#050109"/>
<path fill-rule="evenodd" clip-rule="evenodd" d="M17.864 24.8415C17.864 31.0027 13.2507 35.9872 7.30652 35.9872C4.36592 35.9872 1.85795 34.7486 0.0930175 32.7982L2.53914 30.1045C3.56101 32.1795 5.23225 33.5415 7.30652 33.5415C10.5266 33.5415 12.7246 30.3834 13.1578 26.2655H6.12979V23.3868H13.127C12.7246 19.2999 10.4956 16.1732 7.30652 16.1732C5.17041 16.1732 3.49916 17.5665 2.47743 19.733L0 17.0085C1.79597 14.9967 4.3346 13.7271 7.30652 13.7271C13.2507 13.7271 17.864 18.7116 17.864 24.8415ZM24.8099 26.2655H23.9432V35.6464H19.8252V13.9747H23.9432V23.3555H24.717L28.0606 13.9747H32.4571L28.1843 24.8108L33.1378 35.6464H28.7729L24.8099 26.2655ZM48.5642 24.8415C48.5642 20.0741 46.2114 16.1732 42.6509 16.1732C39.0909 16.1732 36.7371 20.0741 36.7371 24.8415C36.7371 29.6408 39.0909 33.51 42.6509 33.51C46.2114 33.51 48.5642 29.6408 48.5642 24.8415ZM53.208 24.8415C53.208 31.0027 48.5949 35.9562 42.6509 35.9562C36.7062 35.9562 32.0937 31.0027 32.0937 24.8415C32.0937 18.7116 36.7062 13.7271 42.6509 13.7271C48.5949 13.7271 53.208 18.7116 53.208 24.8415Z" fill="#335112"/>
<path fill-rule="evenodd" clip-rule="evenodd" d="M75.5196 12.3572H71.9571L79.2542 0L86.7732 11.9362L82.8426 12.1476L90.3883 22.9615L85.8976 23.0224L85.8498 23.0832L95.0836 34.3785H63.4248L72.6585 23.0832L72.6108 23.0224L68.12 22.9615L75.5196 12.3572Z" fill="#719C2E"/>
<path fill-rule="evenodd" clip-rule="evenodd" d="M73.8713 14.0822H77.1549L70.4293 2.69287L63.5251 13.6491L66.1608 13.6278L59.6831 23.8157L63.4728 23.867L63.5168 23.9231L55.8398 34.3786H85.0188L76.5084 23.968L76.5524 23.9119L80.6914 23.8559L73.8713 14.0822Z" fill="#335112"/>
<path fill-rule="evenodd" clip-rule="evenodd" d="M68.5895 21.6646H70.9066L66.1606 13.6274L61.2703 21.3907L63.8267 21.5283L58.919 28.5615L61.8397 28.6011L61.8708 28.6407L55.8652 35.9872H76.456L70.4504 28.6407L70.4815 28.6011L73.4022 28.5615L68.5895 21.6646Z" fill="#456C1D"/>
<path fill-rule="evenodd" clip-rule="evenodd" d="M89.0258 19.4387H86.371L91.8088 10.23L97.412 19.1249L94.4829 19.2825L100.106 27.341L96.7596 27.3864L96.724 27.4317L103.605 35.8491H80.0127L86.8937 27.4317L86.8581 27.3864L83.5116 27.341L89.0258 19.4387Z" fill="#456C1D"/>
<path fill-rule="evenodd" clip-rule="evenodd" d="M59.0317 18.5579H61.5911L56.3487 9.68018L50.9469 18.2554L53.7708 18.4073L48.3497 26.1762L51.5759 26.2199L51.6103 26.2636L44.9766 34.3784H67.7209L61.0872 26.2636L61.1215 26.2199L64.3477 26.1762L59.0317 18.5579Z" fill="#456C1D"/>
<path fill-rule="evenodd" clip-rule="evenodd" d="M61.1153 24.4464H62.9824L59.1581 17.9702L55.2176 24.2257L57.2775 24.3365L53.323 30.0038L55.6764 30.0357L55.7015 30.0676L50.8623 35.9873H67.4539L62.6148 30.0676L62.6398 30.0357L64.9933 30.0038L61.1153 24.4464Z" fill="#719C2E"/>
</svg>
