<svg width="20" height="20" viewBox="0 0 20 20" fill="none" xmlns="http://www.w3.org/2000/svg">
<path d="M13.8097 6.38856V12.0175C13.8097 12.1323 13.7641 12.2424 13.6829 12.3236C13.6017 12.4048 13.4916 12.4505 13.3767 12.4505C13.2619 12.4505 13.1518 12.4048 13.0706 12.3236C12.9894 12.2424 12.9438 12.1323 12.9438 12.0175V7.4337L6.7552 13.6228C6.67395 13.704 6.56376 13.7497 6.44886 13.7497C6.33396 13.7497 6.22376 13.704 6.14252 13.6228C6.06127 13.5415 6.01562 13.4314 6.01562 13.3164C6.01562 13.2015 6.06127 13.0914 6.14252 13.0101L12.3316 6.82155H7.74784C7.633 6.82155 7.52287 6.77593 7.44167 6.69473C7.36046 6.61353 7.31485 6.5034 7.31485 6.38856C7.31485 6.27372 7.36046 6.16359 7.44167 6.08239C7.52287 6.00119 7.633 5.95557 7.74784 5.95557H13.3767C13.4916 5.95557 13.6017 6.00119 13.6829 6.08239C13.7641 6.16359 13.8097 6.27372 13.8097 6.38856Z" fill="white"/>
</svg>
