<svg width="22" height="19" viewBox="0 0 22 19" fill="none" xmlns="http://www.w3.org/2000/svg">
<path d="M15.6875 0.160156C13.7516 0.160156 12.0566 0.992656 11 2.39984C9.94344 0.992656 8.24844 0.160156 6.3125 0.160156C4.77146 0.161893 3.29404 0.774838 2.20436 1.86452C1.11468 2.9542 0.501737 4.43162 0.5 5.97266C0.5 12.5352 10.2303 17.847 10.6447 18.0664C10.7539 18.1252 10.876 18.1559 11 18.1559C11.124 18.1559 11.2461 18.1252 11.3553 18.0664C11.7697 17.847 21.5 12.5352 21.5 5.97266C21.4983 4.43162 20.8853 2.9542 19.7956 1.86452C18.706 0.774838 17.2285 0.161893 15.6875 0.160156ZM11 16.5477C9.28813 15.5502 2 11.0061 2 5.97266C2.00149 4.82937 2.45632 3.73333 3.26475 2.9249C4.07317 2.11647 5.16921 1.66164 6.3125 1.66016C8.13594 1.66016 9.66687 2.63141 10.3062 4.19141C10.3628 4.32896 10.4589 4.44662 10.5824 4.52942C10.7059 4.61222 10.8513 4.65643 11 4.65643C11.1487 4.65643 11.2941 4.61222 11.4176 4.52942C11.5411 4.44662 11.6372 4.32896 11.6937 4.19141C12.3331 2.62859 13.8641 1.66016 15.6875 1.66016C16.8308 1.66164 17.9268 2.11647 18.7353 2.9249C19.5437 3.73333 19.9985 4.82937 20 5.97266C20 10.9986 12.71 15.5492 11 16.5477Z" fill="#257398"/>
</svg>
