<svg width="21" height="18" viewBox="0 0 21 18" fill="none" xmlns="http://www.w3.org/2000/svg">
<path d="M15.1875 0C13.2516 0 11.5566 0.8325 10.5 2.23969C9.44344 0.8325 7.74844 0 5.8125 0C4.27146 0.00173694 2.79404 0.614681 1.70436 1.70436C0.614681 2.79404 0.00173694 4.27146 0 5.8125C0 12.375 9.73031 17.6869 10.1447 17.9062C10.2539 17.965 10.376 17.9958 10.5 17.9958C10.624 17.9958 10.7461 17.965 10.8553 17.9062C11.2697 17.6869 21 12.375 21 5.8125C20.9983 4.27146 20.3853 2.79404 19.2956 1.70436C18.206 0.614681 16.7285 0.00173694 15.1875 0Z" fill="#257398"/>
</svg>
