<svg width="18" height="18" viewBox="0 0 18 18" fill="none" xmlns="http://www.w3.org/2000/svg">
<path d="M15.9195 2.08025C14.9268 1.08611 13.628 0.455462 12.2329 0.290057C10.8377 0.124652 9.42749 0.434144 8.2298 1.16859C7.03212 1.90304 6.11682 3.0196 5.63161 4.33809C5.1464 5.65659 5.11958 7.10011 5.55548 8.43572L1.24141 12.7498C1.12483 12.8654 1.03241 13.0031 0.969506 13.1548C0.906604 13.3065 0.874482 13.4692 0.875006 13.6334V15.8748C0.875006 16.2063 1.0067 16.5242 1.24112 16.7587C1.47554 16.9931 1.79349 17.1248 2.12501 17.1248H4.62501C4.79077 17.1248 4.94974 17.0589 5.06695 16.9417C5.18416 16.8245 5.25001 16.6655 5.25001 16.4998V15.2498H6.50001C6.66577 15.2498 6.82474 15.1839 6.94195 15.0667C7.05916 14.9495 7.12501 14.7905 7.12501 14.6248V13.3748H8.37501C8.45711 13.3748 8.53842 13.3587 8.61429 13.3274C8.69016 13.296 8.75911 13.25 8.81719 13.192L9.56407 12.4443C10.1892 12.6477 10.8426 12.7508 11.5 12.7498H11.5078C12.7433 12.7483 13.9507 12.3806 14.9773 11.6933C16.004 11.0059 16.8039 10.0297 17.276 8.88798C17.7481 7.74623 17.8712 6.49017 17.6298 5.27849C17.3883 4.0668 16.7932 2.95386 15.9195 2.08025ZM16.5 6.66384C16.4149 9.32712 14.1758 11.4967 11.5086 11.4998H11.5C10.8673 11.5008 10.2402 11.3813 9.65235 11.1474C9.53735 11.0975 9.41 11.0834 9.28684 11.1068C9.16368 11.1302 9.0504 11.1901 8.96173 11.2787L8.11641 12.1248H6.50001C6.33425 12.1248 6.17528 12.1906 6.05807 12.3078C5.94086 12.425 5.87501 12.584 5.87501 12.7498V13.9998H4.62501C4.45925 13.9998 4.30028 14.0656 4.18306 14.1828C4.06585 14.3 4.00001 14.459 4.00001 14.6248V15.8748H2.12501V13.6334L6.7211 9.03806C6.80972 8.94939 6.86962 8.83611 6.89303 8.71295C6.91643 8.58979 6.90226 8.46244 6.85235 8.34744C6.61778 7.75758 6.49818 7.12831 6.50001 6.49353C6.50001 3.82634 8.67266 1.58728 11.3359 1.50212C12.0201 1.47929 12.7016 1.59717 13.3383 1.84846C13.975 2.09975 14.5533 2.4791 15.0374 2.96301C15.5216 3.44691 15.9012 4.02506 16.1528 4.66166C16.4043 5.29825 16.5225 5.97971 16.5 6.66384ZM14 4.93728C14 5.1227 13.945 5.30396 13.842 5.45813C13.739 5.6123 13.5926 5.73246 13.4213 5.80342C13.25 5.87437 13.0615 5.89294 12.8796 5.85677C12.6978 5.82059 12.5307 5.7313 12.3996 5.60019C12.2685 5.46908 12.1792 5.30203 12.143 5.12018C12.1068 4.93832 12.1254 4.74982 12.1964 4.57851C12.2673 4.40721 12.3875 4.26079 12.5417 4.15778C12.6958 4.05476 12.8771 3.99978 13.0625 3.99978C13.3111 3.99978 13.5496 4.09855 13.7254 4.27437C13.9012 4.45018 14 4.68864 14 4.93728Z" fill="black"/>
</svg>
