<svg width="20" height="19" viewBox="0 0 20 19" fill="none" xmlns="http://www.w3.org/2000/svg">
<path d="M9.73483 4.83841C9.15676 4.83841 8.59167 5.00983 8.11102 5.33099C7.63037 5.65215 7.25574 6.10863 7.03452 6.6427C6.81331 7.17677 6.75542 7.76444 6.8682 8.33141C6.98098 8.89838 7.25935 9.41917 7.66811 9.82793C8.07687 10.2367 8.59766 10.5151 9.16463 10.6278C9.73159 10.7406 10.3193 10.6827 10.8533 10.4615C11.3874 10.2403 11.8439 9.86567 12.165 9.38502C12.4862 8.90437 12.6576 8.33928 12.6576 7.7612C12.6576 6.98603 12.3497 6.2426 11.8016 5.69447C11.2534 5.14634 10.51 4.83841 9.73483 4.83841ZM9.73483 9.51488C9.38799 9.51488 9.04893 9.41203 8.76054 9.21933C8.47215 9.02663 8.24738 8.75275 8.11465 8.4323C7.98192 8.11186 7.94719 7.75926 8.01485 7.41908C8.08252 7.0789 8.24954 6.76642 8.4948 6.52117C8.74005 6.27591 9.05253 6.10889 9.39271 6.04122C9.73289 5.97356 10.0855 6.00828 10.4059 6.14102C10.7264 6.27375 11.0003 6.49852 11.193 6.78691C11.3857 7.0753 11.4885 7.41436 11.4885 7.7612C11.4885 8.22631 11.3037 8.67236 10.9749 9.00124C10.646 9.33012 10.1999 9.51488 9.73483 9.51488ZM9.73483 1.33105C8.03005 1.33299 6.39564 2.01107 5.19017 3.21654C3.9847 4.422 3.30662 6.05641 3.30469 7.7612C3.30469 10.0556 4.36493 12.4874 6.37362 14.7942C7.2762 15.8366 8.29204 16.7752 9.40237 17.5928C9.50065 17.6616 9.61775 17.6985 9.73776 17.6985C9.85776 17.6985 9.97486 17.6616 10.0731 17.5928C11.1814 16.7749 12.1953 15.8362 13.096 14.7942C15.1018 12.4874 16.165 10.0556 16.165 7.7612C16.163 6.05641 15.485 4.422 14.2795 3.21654C13.074 2.01107 11.4396 1.33299 9.73483 1.33105ZM9.73483 16.3834C8.52699 15.4335 4.47381 11.9445 4.47381 7.7612C4.47381 6.36589 5.02809 5.02773 6.01472 4.04109C7.00136 3.05446 8.33952 2.50017 9.73483 2.50017C11.1301 2.50017 12.4683 3.05446 13.4549 4.04109C14.4416 5.02773 14.9959 6.36589 14.9959 7.7612C14.9959 11.943 10.9427 15.4335 9.73483 16.3834Z" fill="black"/>
</svg>
