<svg width="16" height="16" viewBox="0 0 16 16" fill="none" xmlns="http://www.w3.org/2000/svg">
<path d="M13.6578 9.86441L10.9327 8.64326L10.9251 8.63979C10.7837 8.57928 10.6293 8.555 10.4761 8.56914C10.3229 8.58328 10.1756 8.6354 10.0476 8.72078C10.0325 8.73073 10.0181 8.74155 10.0042 8.75317L8.59623 9.9535C7.70423 9.52022 6.78331 8.60624 6.35003 7.72581L7.55209 6.29641C7.56366 6.28195 7.57465 6.26749 7.58507 6.25187C7.66861 6.1242 7.7193 5.97786 7.73263 5.82587C7.74595 5.67388 7.72149 5.52095 7.66142 5.38069V5.37375L6.4368 2.64395C6.3574 2.46073 6.22087 2.3081 6.0476 2.20885C5.87433 2.1096 5.6736 2.06905 5.47539 2.09325C4.69154 2.1964 3.97205 2.58134 3.45128 3.1762C2.93052 3.77106 2.6441 4.53514 2.64551 5.32574C2.64551 9.91879 6.38243 13.6557 10.9755 13.6557C11.7661 13.6571 12.5302 13.3707 13.125 12.8499C13.7199 12.3292 14.1048 11.6097 14.208 10.8258C14.2322 10.6277 14.1917 10.427 14.0926 10.2537C13.9935 10.0805 13.841 9.94391 13.6578 9.86441ZM10.9755 12.7302C9.01236 12.728 7.13027 11.9472 5.74213 10.5591C4.354 9.17095 3.57321 7.28885 3.57106 5.32574C3.56889 4.76086 3.7724 4.2145 4.1436 3.78869C4.51479 3.36289 5.02829 3.08675 5.58819 3.01186C5.58796 3.01417 5.58796 3.01649 5.58819 3.0188L6.80297 5.73761L5.60728 7.16874C5.59514 7.18271 5.58412 7.1976 5.5743 7.21329C5.48725 7.34686 5.43619 7.50067 5.42605 7.65978C5.41592 7.8189 5.44706 7.97794 5.51646 8.12148C6.04055 9.19339 7.12055 10.2653 8.20403 10.7888C8.34863 10.8576 8.50858 10.8876 8.66828 10.8761C8.82797 10.8645 8.98193 10.8117 9.11512 10.7229C9.12997 10.7129 9.14426 10.702 9.15792 10.6905L10.5642 9.49072L13.283 10.7084C13.283 10.7084 13.2876 10.7084 13.2894 10.7084C13.2154 11.2691 12.9397 11.7836 12.5138 12.1557C12.0879 12.5279 11.541 12.7321 10.9755 12.7302Z" fill="white"/>
</svg>
