<svg width="13" height="13" viewBox="0 0 13 13" fill="none" xmlns="http://www.w3.org/2000/svg">
<path d="M6.22551 0.700174C6.53264 0.252035 7.194 0.252034 7.50113 0.700174L9.16212 3.12377C9.26267 3.27047 9.41071 3.37803 9.5813 3.42832L12.3996 4.25909C12.9207 4.4127 13.125 5.04169 12.7937 5.47227L11.002 7.80091C10.8936 7.94186 10.837 8.1159 10.8419 8.29368L10.9227 11.2307C10.9376 11.7738 10.4026 12.1625 9.89071 11.9805L7.12238 10.9961C6.95481 10.9365 6.77182 10.9365 6.60425 10.9961L3.83593 11.9805C3.32404 12.1625 2.78899 11.7738 2.80393 11.2307L2.88471 8.29368C2.88959 8.1159 2.83305 7.94186 2.72459 7.80091L0.932895 5.47227C0.601597 5.04169 0.805969 4.4127 1.32708 4.25909L4.14533 3.42832C4.31593 3.37803 4.46397 3.27047 4.56451 3.12377L6.22551 0.700174Z" fill="#F4AB10"/>
</svg>
