<svg width="37" height="37" viewBox="0 0 37 37" fill="none" xmlns="http://www.w3.org/2000/svg">
<path d="M31.6106 6.27352C31.4557 6.13973 31.2672 6.05075 31.0654 6.01617C30.8636 5.98159 30.6563 6.00271 30.4656 6.07727L5.1333 15.9911C4.77428 16.1307 4.47033 16.3832 4.26721 16.7105C4.06409 17.0378 3.97278 17.4222 4.00705 17.8059C4.04131 18.1896 4.19929 18.5517 4.45719 18.8379C4.7151 19.124 5.05897 19.3186 5.43704 19.3924L12.0007 20.6812V28C11.9995 28.3986 12.1179 28.7885 12.3408 29.119C12.5637 29.4495 12.8807 29.7055 13.2507 29.8537C13.6202 30.0046 14.0266 30.0408 14.4169 29.9577C14.8073 29.8745 15.1636 29.6759 15.4395 29.3875L18.6045 26.105L23.6257 30.5C23.9879 30.8213 24.4552 30.9992 24.9394 31C25.1516 30.9998 25.3625 30.9665 25.5644 30.9012C25.8943 30.7966 26.1911 30.6073 26.4251 30.3522C26.6591 30.0971 26.8222 29.7852 26.8981 29.4475L31.9719 7.37478C32.0172 7.17572 32.0076 6.96805 31.944 6.77405C31.8803 6.58005 31.7651 6.40703 31.6106 6.27352ZM23.9682 10.7736L12.7695 18.7936L6.56954 17.5774L23.9682 10.7736ZM14.0007 28V22.0649L17.0995 24.7824L14.0007 28ZM24.9419 29L14.607 19.9374L29.4819 9.27605L24.9419 29Z" fill="white"/>
</svg>
