<svg width="34" height="35" viewBox="0 0 34 35" fill="none" xmlns="http://www.w3.org/2000/svg">
<path d="M19.9136 24.0253C17.4146 24.0226 15.0186 23.0286 13.2515 21.2615C11.4844 19.4943 10.4904 17.0984 10.4876 14.5993C10.4874 13.8729 10.7389 13.1688 11.1994 12.607C11.6598 12.0451 12.3007 11.6601 13.013 11.5175L14.5159 14.5286L13.2369 16.4322C13.1413 16.5755 13.0826 16.7403 13.0659 16.9118C13.0492 17.0833 13.0751 17.2562 13.1413 17.4153C13.8907 19.1963 15.3075 20.6131 17.0885 21.3625C17.248 21.4316 17.4223 21.4599 17.5956 21.4448C17.7688 21.4297 17.9356 21.3717 18.0808 21.2761L19.9935 20.0009L23.0046 21.5039C22.8609 22.217 22.4743 22.8582 21.9106 23.318C21.3469 23.7778 20.6411 24.0278 19.9136 24.0253Z" fill="white"/>
<path fill-rule="evenodd" clip-rule="evenodd" d="M10.0643 5.89104C12.1102 4.73355 14.421 4.12546 16.7716 4.12598C18.8398 4.12683 20.8807 4.59883 22.7392 5.50617C24.5978 6.41351 26.2252 7.73234 27.498 9.36254C28.7707 10.9927 29.6554 12.8915 30.0847 14.9146C30.5141 16.9378 30.477 19.0321 29.9761 21.0388C29.4752 23.0454 28.5237 24.9116 27.1939 26.4956C25.8641 28.0796 24.191 29.3399 22.3014 30.1807C20.4118 31.0215 18.3555 31.4208 16.2886 31.3483C14.2217 31.2758 12.1984 30.7333 10.3724 29.7621L5.91471 31.248C5.54564 31.3711 5.14958 31.389 4.77092 31.2996C4.39227 31.2102 4.04599 31.0172 3.77088 30.7421C3.49578 30.467 3.30273 30.1207 3.21337 29.742C3.12401 29.3634 3.14187 28.9673 3.26495 28.5983L4.75086 24.1405C3.64605 22.0657 3.09724 19.7402 3.15785 17.3903C3.21845 15.0404 3.88641 12.7463 5.0967 10.7311C6.307 8.71599 8.0184 7.04852 10.0643 5.89104ZM11.0034 27.7159C12.7565 28.73 14.7463 29.2634 16.7716 29.262C19.308 29.2616 21.7734 28.4241 23.7853 26.8796C25.7972 25.335 27.2431 23.1697 27.8988 20.7195C28.5545 18.2694 28.3833 15.6713 27.4117 13.3283C26.4401 10.9854 24.7225 9.02854 22.5253 7.76138C20.3281 6.49423 17.7742 5.98758 15.2597 6.32004C12.7452 6.6525 10.4106 7.80548 8.61826 9.60012C6.82588 11.3948 5.67585 13.7307 5.34657 16.2457C5.01729 18.7606 5.52716 21.3139 6.79709 23.5095C6.87131 23.638 6.91739 23.7807 6.93229 23.9283C6.94719 24.0759 6.93055 24.225 6.88349 24.3657L5.25096 29.262L10.1473 27.6282C10.288 27.5813 10.4372 27.5649 10.5848 27.58C10.7324 27.5951 10.8751 27.6414 11.0034 27.7159Z" fill="white"/>
</svg>
